<svg width="266" height="21" viewBox="0 0 266 21" fill="none" xmlns="http://www.w3.org/2000/svg">
<path d="M22.876 14.098C22.3907 14.098 22.148 13.8507 22.148 13.356V4.872C22.148 4.37733 22.3953 4.13 22.89 4.13H26.236C27.3 4.13 28.1213 4.396 28.7 4.928C29.2787 5.45067 29.568 6.188 29.568 7.14C29.568 8.10133 29.2787 8.848 28.7 9.38C28.1213 9.90267 27.3 10.164 26.236 10.164H23.604V13.356C23.604 13.8507 23.3613 14.098 22.876 14.098ZM23.604 9.002H26.026C27.4447 9.002 28.154 8.38133 28.154 7.14C28.154 5.908 27.4447 5.292 26.026 5.292H23.604V9.002ZM32.8186 14.126C32.3426 14.126 31.918 14.0327 31.5446 13.846C31.1713 13.6593 30.8726 13.4073 30.6486 13.09C30.434 12.7727 30.3266 12.4133 30.3266 12.012C30.3266 11.508 30.4526 11.1113 30.7046 10.822C30.966 10.5327 31.3906 10.3227 31.9786 10.192C32.576 10.0613 33.3786 9.996 34.3866 9.996H34.8626V9.632C34.8626 9.1 34.7506 8.71733 34.5266 8.484C34.3026 8.25067 33.934 8.134 33.4206 8.134C33.122 8.134 32.8093 8.17133 32.4826 8.246C32.1653 8.32067 31.834 8.44667 31.4886 8.624C31.2926 8.71733 31.1293 8.73133 30.9986 8.666C30.8773 8.60067 30.7933 8.498 30.7466 8.358C30.7 8.218 30.7046 8.07333 30.7606 7.924C30.8166 7.77467 30.9333 7.66267 31.1106 7.588C31.5213 7.40133 31.9273 7.266 32.3286 7.182C32.73 7.08867 33.108 7.042 33.4626 7.042C34.396 7.042 35.0866 7.266 35.5346 7.714C35.9826 8.15267 36.2066 8.84333 36.2066 9.786V13.384C36.2066 13.86 35.9873 14.098 35.5486 14.098C35.1006 14.098 34.8766 13.86 34.8766 13.384V12.866C34.7086 13.258 34.4473 13.566 34.0926 13.79C33.738 14.014 33.3133 14.126 32.8186 14.126ZM33.0986 13.118C33.6026 13.118 34.0226 12.9407 34.3586 12.586C34.6946 12.2313 34.8626 11.7833 34.8626 11.242V10.864H34.4006C33.7193 10.864 33.1826 10.8967 32.7906 10.962C32.408 11.0273 32.1326 11.1393 31.9646 11.298C31.806 11.4473 31.7266 11.6573 31.7266 11.928C31.7266 12.2827 31.848 12.572 32.0906 12.796C32.3333 13.0107 32.6693 13.118 33.0986 13.118ZM41.2482 16.646C40.7442 16.646 40.2542 16.5947 39.7782 16.492C39.3115 16.3893 38.8868 16.2213 38.5042 15.988C38.3362 15.8947 38.2335 15.778 38.1962 15.638C38.1588 15.498 38.1728 15.3627 38.2382 15.232C38.3128 15.1013 38.4108 15.0033 38.5322 14.938C38.6628 14.882 38.8028 14.896 38.9522 14.98C39.3628 15.204 39.7502 15.3533 40.1142 15.428C40.4875 15.512 40.8328 15.554 41.1502 15.554C42.4568 15.554 43.1102 14.9007 43.1102 13.594V12.516C42.9142 12.9267 42.6062 13.2487 42.1862 13.482C41.7755 13.7153 41.3135 13.832 40.8002 13.832C40.1842 13.832 39.6475 13.692 39.1902 13.412C38.7328 13.1227 38.3782 12.726 38.1262 12.222C37.8742 11.7087 37.7482 11.1113 37.7482 10.43C37.7482 9.758 37.8742 9.17 38.1262 8.666C38.3782 8.15267 38.7328 7.756 39.1902 7.476C39.6475 7.18667 40.1842 7.042 40.8002 7.042C41.3135 7.042 41.7708 7.15867 42.1722 7.392C42.5828 7.616 42.8862 7.924 43.0822 8.316V7.784C43.0822 7.308 43.3155 7.07 43.7822 7.07C44.2488 7.07 44.4822 7.308 44.4822 7.784V13.426C44.4822 14.4993 44.2068 15.302 43.6562 15.834C43.1055 16.3753 42.3028 16.646 41.2482 16.646ZM41.1362 12.726C41.7335 12.726 42.2095 12.5207 42.5642 12.11C42.9188 11.6993 43.0962 11.1393 43.0962 10.43C43.0962 9.72067 42.9188 9.16533 42.5642 8.764C42.2095 8.35333 41.7335 8.148 41.1362 8.148C40.5388 8.148 40.0628 8.35333 39.7082 8.764C39.3535 9.16533 39.1762 9.72067 39.1762 10.43C39.1762 11.1393 39.3535 11.6993 39.7082 12.11C40.0628 12.5207 40.5388 12.726 41.1362 12.726ZM48.6507 14.126C48.1747 14.126 47.75 14.0327 47.3767 13.846C47.0033 13.6593 46.7047 13.4073 46.4807 13.09C46.266 12.7727 46.1587 12.4133 46.1587 12.012C46.1587 11.508 46.2847 11.1113 46.5367 10.822C46.798 10.5327 47.2227 10.3227 47.8107 10.192C48.408 10.0613 49.2107 9.996 50.2187 9.996H50.6947V9.632C50.6947 9.1 50.5827 8.71733 50.3587 8.484C50.1347 8.25067 49.766 8.134 49.2527 8.134C48.954 8.134 48.6413 8.17133 48.3147 8.246C47.9973 8.32067 47.666 8.44667 47.3207 8.624C47.1247 8.71733 46.9613 8.73133 46.8307 8.666C46.7093 8.60067 46.6253 8.498 46.5787 8.358C46.532 8.218 46.5367 8.07333 46.5927 7.924C46.6487 7.77467 46.7653 7.66267 46.9427 7.588C47.3533 7.40133 47.7593 7.266 48.1607 7.182C48.562 7.08867 48.94 7.042 49.2947 7.042C50.228 7.042 50.9187 7.266 51.3667 7.714C51.8147 8.15267 52.0387 8.84333 52.0387 9.786V13.384C52.0387 13.86 51.8193 14.098 51.3807 14.098C50.9327 14.098 50.7087 13.86 50.7087 13.384V12.866C50.5407 13.258 50.2793 13.566 49.9247 13.79C49.57 14.014 49.1453 14.126 48.6507 14.126ZM48.9307 13.118C49.4347 13.118 49.8547 12.9407 50.1907 12.586C50.5267 12.2313 50.6947 11.7833 50.6947 11.242V10.864H50.2327C49.5513 10.864 49.0147 10.8967 48.6227 10.962C48.24 11.0273 47.9647 11.1393 47.7967 11.298C47.638 11.4473 47.5587 11.6573 47.5587 11.928C47.5587 12.2827 47.68 12.572 47.9227 12.796C48.1653 13.0107 48.5013 13.118 48.9307 13.118ZM54.7142 14.098C54.2475 14.098 54.0142 13.86 54.0142 13.384V7.784C54.0142 7.308 54.2429 7.07 54.7002 7.07C55.1575 7.07 55.3862 7.308 55.3862 7.784V8.274C55.5915 7.882 55.8762 7.57867 56.2402 7.364C56.6042 7.14933 57.0289 7.042 57.5142 7.042C58.5595 7.042 59.2362 7.49933 59.5442 8.414C59.7589 7.98467 60.0669 7.64867 60.4682 7.406C60.8695 7.16333 61.3269 7.042 61.8402 7.042C63.3709 7.042 64.1362 7.95667 64.1362 9.786V13.384C64.1362 13.86 63.8982 14.098 63.4222 14.098C62.9555 14.098 62.7222 13.86 62.7222 13.384V9.856C62.7222 9.27733 62.6195 8.85267 62.4142 8.582C62.2182 8.31133 61.8915 8.176 61.4342 8.176C60.9209 8.176 60.5149 8.358 60.2162 8.722C59.9175 9.07667 59.7682 9.562 59.7682 10.178V13.384C59.7682 13.86 59.5349 14.098 59.0682 14.098C58.5922 14.098 58.3542 13.86 58.3542 13.384V9.856C58.3542 9.27733 58.2562 8.85267 58.0602 8.582C57.8642 8.31133 57.5375 8.176 57.0802 8.176C56.5669 8.176 56.1609 8.358 55.8622 8.722C55.5729 9.07667 55.4282 9.562 55.4282 10.178V13.384C55.4282 13.86 55.1902 14.098 54.7142 14.098ZM69.3191 14.126C68.1991 14.126 67.3171 13.8133 66.6731 13.188C66.0291 12.5533 65.7071 11.69 65.7071 10.598C65.7071 9.898 65.8471 9.282 66.1271 8.75C66.4165 8.20867 66.8131 7.78867 67.3171 7.49C67.8211 7.19133 68.3998 7.042 69.0531 7.042C69.9958 7.042 70.7378 7.34533 71.2791 7.952C71.8205 8.54933 72.0911 9.37533 72.0911 10.43C72.0911 10.7473 71.9045 10.906 71.5311 10.906H67.0791C67.1818 12.3247 67.9331 13.034 69.3331 13.034C69.6131 13.034 69.9071 13.0013 70.2151 12.936C70.5231 12.8613 70.8218 12.7307 71.1111 12.544C71.3071 12.432 71.4751 12.3947 71.6151 12.432C71.7645 12.46 71.8718 12.5393 71.9371 12.67C72.0025 12.7913 72.0118 12.9313 71.9651 13.09C71.9278 13.2393 71.8205 13.37 71.6431 13.482C71.3258 13.6967 70.9525 13.86 70.5231 13.972C70.1031 14.0747 69.7018 14.126 69.3191 14.126ZM69.1091 8.036C68.5211 8.036 68.0545 8.218 67.7091 8.582C67.3638 8.946 67.1538 9.43133 67.0791 10.038H70.9011C70.8731 9.40333 70.7051 8.91333 70.3971 8.568C70.0891 8.21333 69.6598 8.036 69.1091 8.036ZM74.3327 14.098C73.866 14.098 73.6327 13.86 73.6327 13.384V7.784C73.6327 7.308 73.8613 7.07 74.3187 7.07C74.776 7.07 75.0047 7.308 75.0047 7.784V8.302C75.238 7.89133 75.5553 7.57867 75.9567 7.364C76.3673 7.14933 76.8247 7.042 77.3287 7.042C78.9433 7.042 79.7507 7.95667 79.7507 9.786V13.384C79.7507 13.86 79.5173 14.098 79.0507 14.098C78.5747 14.098 78.3367 13.86 78.3367 13.384V9.87C78.3367 9.282 78.22 8.85267 77.9867 8.582C77.7627 8.31133 77.408 8.176 76.9227 8.176C76.3533 8.176 75.896 8.358 75.5507 8.722C75.2147 9.07667 75.0467 9.548 75.0467 10.136V13.384C75.0467 13.86 74.8087 14.098 74.3327 14.098ZM84.6111 14.126C83.7524 14.126 83.1131 13.9067 82.6931 13.468C82.2731 13.0293 82.0631 12.3947 82.0631 11.564V8.26H81.2231C80.8311 8.26 80.6351 8.078 80.6351 7.714C80.6351 7.35 80.8311 7.168 81.2231 7.168H82.0631V5.726C82.0631 5.25 82.3011 5.012 82.7771 5.012C83.2437 5.012 83.4771 5.25 83.4771 5.726V7.168H85.1151C85.5071 7.168 85.7031 7.35 85.7031 7.714C85.7031 8.078 85.5071 8.26 85.1151 8.26H83.4771V11.452C83.4771 11.9467 83.5797 12.32 83.7851 12.572C83.9997 12.824 84.3451 12.95 84.8211 12.95C84.9891 12.95 85.1337 12.936 85.2551 12.908C85.3764 12.8707 85.4837 12.8473 85.5771 12.838C85.6797 12.838 85.7637 12.8753 85.8291 12.95C85.8944 13.0153 85.9271 13.146 85.9271 13.342C85.9271 13.4913 85.8991 13.6267 85.8431 13.748C85.7964 13.86 85.7077 13.9347 85.5771 13.972C85.4651 14.0187 85.3111 14.056 85.1151 14.084C84.9284 14.112 84.7604 14.126 84.6111 14.126ZM89.712 14.126C89.0213 14.126 88.424 13.9813 87.92 13.692C87.416 13.4027 87.024 12.9967 86.744 12.474C86.4733 11.942 86.338 11.312 86.338 10.584C86.338 9.856 86.4733 9.23067 86.744 8.708C87.024 8.176 87.416 7.76533 87.92 7.476C88.424 7.18667 89.0213 7.042 89.712 7.042C90.384 7.042 90.972 7.18667 91.476 7.476C91.98 7.76533 92.372 8.176 92.652 8.708C92.932 9.23067 93.072 9.856 93.072 10.584C93.072 11.312 92.932 11.942 92.652 12.474C92.372 12.9967 91.98 13.4027 91.476 13.692C90.972 13.9813 90.384 14.126 89.712 14.126ZM89.712 13.034C90.2907 13.034 90.7573 12.824 91.112 12.404C91.4667 11.984 91.644 11.3773 91.644 10.584C91.644 9.79067 91.4667 9.18867 91.112 8.778C90.7573 8.358 90.2907 8.148 89.712 8.148C89.124 8.148 88.6527 8.358 88.298 8.778C87.9433 9.18867 87.766 9.79067 87.766 10.584C87.766 11.3773 87.9433 11.984 88.298 12.404C88.6527 12.824 89.124 13.034 89.712 13.034ZM99.5274 14C99.1074 14 98.8974 13.7947 98.8974 13.384C98.8974 12.9827 99.1074 12.782 99.5274 12.782H101.235V5.796L99.9194 6.636C99.7421 6.748 99.5741 6.78067 99.4154 6.734C99.2661 6.678 99.1494 6.58 99.0654 6.44C98.9908 6.3 98.9674 6.15067 98.9954 5.992C99.0328 5.824 99.1401 5.684 99.3174 5.572L101.249 4.354C101.408 4.26067 101.557 4.186 101.697 4.13C101.847 4.06467 101.987 4.032 102.117 4.032C102.276 4.032 102.407 4.07867 102.509 4.172C102.621 4.26533 102.677 4.41 102.677 4.606V12.782H104.245C104.675 12.782 104.889 12.9827 104.889 13.384C104.889 13.7947 104.675 14 104.245 14H99.5274ZM109.952 14.126C108.804 14.126 107.927 13.692 107.32 12.824C106.723 11.9467 106.424 10.6913 106.424 9.058C106.424 7.39667 106.723 6.14133 107.32 5.292C107.927 4.43333 108.804 4.004 109.952 4.004C111.109 4.004 111.987 4.43333 112.584 5.292C113.181 6.14133 113.48 7.392 113.48 9.044C113.48 10.6867 113.177 11.9467 112.57 12.824C111.973 13.692 111.1 14.126 109.952 14.126ZM109.952 12.922C110.661 12.922 111.189 12.6093 111.534 11.984C111.879 11.3493 112.052 10.3693 112.052 9.044C112.052 7.70933 111.879 6.73867 111.534 6.132C111.198 5.516 110.671 5.208 109.952 5.208C109.243 5.208 108.715 5.516 108.37 6.132C108.025 6.748 107.852 7.71867 107.852 9.044C107.852 10.3693 108.025 11.3493 108.37 11.984C108.715 12.6093 109.243 12.922 109.952 12.922ZM118.346 14.126C117.198 14.126 116.321 13.692 115.714 12.824C115.117 11.9467 114.818 10.6913 114.818 9.058C114.818 7.39667 115.117 6.14133 115.714 5.292C116.321 4.43333 117.198 4.004 118.346 4.004C119.504 4.004 120.381 4.43333 120.978 5.292C121.576 6.14133 121.874 7.392 121.874 9.044C121.874 10.6867 121.571 11.9467 120.964 12.824C120.367 13.692 119.494 14.126 118.346 14.126ZM118.346 12.922C119.056 12.922 119.583 12.6093 119.928 11.984C120.274 11.3493 120.446 10.3693 120.446 9.044C120.446 7.70933 120.274 6.73867 119.928 6.132C119.592 5.516 119.065 5.208 118.346 5.208C117.637 5.208 117.11 5.516 116.764 6.132C116.419 6.748 116.246 7.71867 116.246 9.044C116.246 10.3693 116.419 11.3493 116.764 11.984C117.11 12.6093 117.637 12.922 118.346 12.922ZM126.923 13.958C126.82 14.1353 126.694 14.238 126.545 14.266C126.405 14.294 126.27 14.2707 126.139 14.196C126.018 14.1307 125.934 14.028 125.887 13.888C125.84 13.7387 125.868 13.5753 125.971 13.398L131.263 4.2C131.366 4.02267 131.487 3.92 131.627 3.892C131.776 3.85467 131.912 3.87333 132.033 3.948C132.164 4.02267 132.252 4.13 132.299 4.27C132.346 4.41 132.318 4.56867 132.215 4.746L126.923 13.958ZM125.677 10.038C124.912 10.038 124.314 9.772 123.885 9.24C123.456 8.69867 123.241 7.95667 123.241 7.014C123.241 6.07133 123.456 5.334 123.885 4.802C124.324 4.27 124.921 4.004 125.677 4.004C126.433 4.004 127.026 4.27 127.455 4.802C127.894 5.334 128.113 6.07133 128.113 7.014C128.113 7.95667 127.898 8.69867 127.469 9.24C127.04 9.772 126.442 10.038 125.677 10.038ZM125.677 9.044C126.069 9.044 126.372 8.876 126.587 8.54C126.811 8.204 126.923 7.69533 126.923 7.014C126.923 6.33267 126.811 5.824 126.587 5.488C126.372 5.152 126.069 4.984 125.677 4.984C125.285 4.984 124.977 5.152 124.753 5.488C124.538 5.824 124.431 6.33267 124.431 7.014C124.431 7.70467 124.538 8.218 124.753 8.554C124.977 8.88067 125.285 9.044 125.677 9.044ZM132.523 14.126C131.767 14.126 131.174 13.86 130.745 13.328C130.316 12.796 130.101 12.054 130.101 11.102C130.101 10.1687 130.316 9.436 130.745 8.904C131.174 8.36267 131.767 8.092 132.523 8.092C133.288 8.092 133.886 8.36267 134.315 8.904C134.744 9.436 134.959 10.1687 134.959 11.102C134.959 12.054 134.744 12.796 134.315 13.328C133.886 13.86 133.288 14.126 132.523 14.126ZM132.523 13.146C132.915 13.146 133.218 12.978 133.433 12.642C133.657 12.306 133.769 11.7927 133.769 11.102C133.769 10.43 133.657 9.926 133.433 9.59C133.218 9.254 132.915 9.086 132.523 9.086C132.131 9.086 131.823 9.254 131.599 9.59C131.384 9.91667 131.277 10.4207 131.277 11.102C131.277 11.7927 131.384 12.306 131.599 12.642C131.823 12.978 132.131 13.146 132.523 13.146ZM142.732 14.126C142.321 14.126 141.896 14.0793 141.458 13.986C141.019 13.8927 140.622 13.734 140.268 13.51C140.109 13.4167 140.011 13.3 139.974 13.16C139.936 13.02 139.946 12.8893 140.002 12.768C140.058 12.6467 140.146 12.5627 140.268 12.516C140.398 12.46 140.543 12.474 140.702 12.558C141.066 12.754 141.416 12.894 141.752 12.978C142.088 13.062 142.419 13.104 142.746 13.104C143.24 13.104 143.614 13.0153 143.866 12.838C144.118 12.6607 144.244 12.4227 144.244 12.124C144.244 11.8813 144.16 11.6947 143.992 11.564C143.824 11.424 143.572 11.3167 143.236 11.242L141.906 10.976C140.73 10.7333 140.142 10.1267 140.142 9.156C140.142 8.512 140.398 7.99867 140.912 7.616C141.425 7.23333 142.097 7.042 142.928 7.042C143.768 7.042 144.491 7.24733 145.098 7.658C145.247 7.75133 145.336 7.868 145.364 8.008C145.392 8.13867 145.373 8.26467 145.308 8.386C145.242 8.498 145.144 8.57733 145.014 8.624C144.892 8.67067 144.748 8.652 144.58 8.568C144.3 8.4 144.02 8.27867 143.74 8.204C143.46 8.12 143.189 8.078 142.928 8.078C142.442 8.078 142.074 8.17133 141.822 8.358C141.57 8.53533 141.444 8.778 141.444 9.086C141.444 9.55267 141.752 9.85133 142.368 9.982L143.698 10.248C144.304 10.3693 144.762 10.5747 145.07 10.864C145.387 11.1533 145.546 11.5453 145.546 12.04C145.546 12.6933 145.289 13.2067 144.776 13.58C144.262 13.944 143.581 14.126 142.732 14.126ZM150.325 14.126C149.205 14.126 148.323 13.8133 147.679 13.188C147.035 12.5533 146.713 11.69 146.713 10.598C146.713 9.898 146.853 9.282 147.133 8.75C147.422 8.20867 147.819 7.78867 148.323 7.49C148.827 7.19133 149.406 7.042 150.059 7.042C151.002 7.042 151.744 7.34533 152.285 7.952C152.826 8.54933 153.097 9.37533 153.097 10.43C153.097 10.7473 152.91 10.906 152.537 10.906H148.085C148.188 12.3247 148.939 13.034 150.339 13.034C150.619 13.034 150.913 13.0013 151.221 12.936C151.529 12.8613 151.828 12.7307 152.117 12.544C152.313 12.432 152.481 12.3947 152.621 12.432C152.77 12.46 152.878 12.5393 152.943 12.67C153.008 12.7913 153.018 12.9313 152.971 13.09C152.934 13.2393 152.826 13.37 152.649 13.482C152.332 13.6967 151.958 13.86 151.529 13.972C151.109 14.0747 150.708 14.126 150.325 14.126ZM150.115 8.036C149.527 8.036 149.06 8.218 148.715 8.582C148.37 8.946 148.16 9.43133 148.085 10.038H151.907C151.879 9.40333 151.711 8.91333 151.403 8.568C151.095 8.21333 150.666 8.036 150.115 8.036ZM157.733 16.646C157.229 16.646 156.739 16.5947 156.263 16.492C155.796 16.3893 155.371 16.2213 154.989 15.988C154.821 15.8947 154.718 15.778 154.681 15.638C154.643 15.498 154.657 15.3627 154.723 15.232C154.797 15.1013 154.895 15.0033 155.017 14.938C155.147 14.882 155.287 14.896 155.437 14.98C155.847 15.204 156.235 15.3533 156.599 15.428C156.972 15.512 157.317 15.554 157.635 15.554C158.941 15.554 159.595 14.9007 159.595 13.594V12.516C159.399 12.9267 159.091 13.2487 158.671 13.482C158.26 13.7153 157.798 13.832 157.285 13.832C156.669 13.832 156.132 13.692 155.675 13.412C155.217 13.1227 154.863 12.726 154.611 12.222C154.359 11.7087 154.233 11.1113 154.233 10.43C154.233 9.758 154.359 9.17 154.611 8.666C154.863 8.15267 155.217 7.756 155.675 7.476C156.132 7.18667 156.669 7.042 157.285 7.042C157.798 7.042 158.255 7.15867 158.657 7.392C159.067 7.616 159.371 7.924 159.567 8.316V7.784C159.567 7.308 159.8 7.07 160.267 7.07C160.733 7.07 160.967 7.308 160.967 7.784V13.426C160.967 14.4993 160.691 15.302 160.141 15.834C159.59 16.3753 158.787 16.646 157.733 16.646ZM157.621 12.726C158.218 12.726 158.694 12.5207 159.049 12.11C159.403 11.6993 159.581 11.1393 159.581 10.43C159.581 9.72067 159.403 9.16533 159.049 8.764C158.694 8.35333 158.218 8.148 157.621 8.148C157.023 8.148 156.547 8.35333 156.193 8.764C155.838 9.16533 155.661 9.72067 155.661 10.43C155.661 11.1393 155.838 11.6993 156.193 12.11C156.547 12.5207 157.023 12.726 157.621 12.726ZM165.387 14.126C163.735 14.126 162.909 13.2067 162.909 11.368V7.784C162.909 7.308 163.142 7.07 163.609 7.07C164.085 7.07 164.323 7.308 164.323 7.784V11.382C164.323 11.9327 164.435 12.3387 164.659 12.6C164.883 12.8613 165.238 12.992 165.723 12.992C166.255 12.992 166.684 12.8147 167.011 12.46C167.347 12.1053 167.515 11.6293 167.515 11.032V7.784C167.515 7.308 167.753 7.07 168.229 7.07C168.696 7.07 168.929 7.308 168.929 7.784V13.384C168.929 13.86 168.7 14.098 168.243 14.098C167.786 14.098 167.557 13.86 167.557 13.384V12.908C167.333 13.3093 167.034 13.6127 166.661 13.818C166.288 14.0233 165.863 14.126 165.387 14.126ZM171.636 14.098C171.16 14.098 170.922 13.86 170.922 13.384V7.784C170.922 7.308 171.15 7.07 171.608 7.07C172.065 7.07 172.294 7.308 172.294 7.784V8.386C172.48 7.966 172.76 7.644 173.134 7.42C173.516 7.196 173.978 7.06533 174.52 7.028C174.865 7 175.052 7.18667 175.08 7.588C175.117 7.99867 174.916 8.22267 174.478 8.26L174.212 8.288C172.97 8.40933 172.35 9.04867 172.35 10.206V13.384C172.35 13.86 172.112 14.098 171.636 14.098ZM179.017 14.126C178.326 14.126 177.729 13.9813 177.225 13.692C176.721 13.4027 176.329 12.9967 176.049 12.474C175.778 11.942 175.643 11.312 175.643 10.584C175.643 9.856 175.778 9.23067 176.049 8.708C176.329 8.176 176.721 7.76533 177.225 7.476C177.729 7.18667 178.326 7.042 179.017 7.042C179.689 7.042 180.277 7.18667 180.781 7.476C181.285 7.76533 181.677 8.176 181.957 8.708C182.237 9.23067 182.377 9.856 182.377 10.584C182.377 11.312 182.237 11.942 181.957 12.474C181.677 12.9967 181.285 13.4027 180.781 13.692C180.277 13.9813 179.689 14.126 179.017 14.126ZM179.017 13.034C179.595 13.034 180.062 12.824 180.417 12.404C180.771 11.984 180.949 11.3773 180.949 10.584C180.949 9.79067 180.771 9.18867 180.417 8.778C180.062 8.358 179.595 8.148 179.017 8.148C178.429 8.148 177.957 8.358 177.603 8.778C177.248 9.18867 177.071 9.79067 177.071 10.584C177.071 11.3773 177.248 11.984 177.603 12.404C177.957 12.824 178.429 13.034 179.017 13.034ZM190.302 14.098C189.91 14.098 189.621 13.888 189.434 13.468L187.096 8.036C186.984 7.784 186.979 7.56 187.082 7.364C187.185 7.168 187.395 7.07 187.712 7.07C187.88 7.07 188.015 7.112 188.118 7.196C188.23 7.28 188.328 7.42467 188.412 7.63L190.33 12.362L192.29 7.63C192.374 7.42467 192.467 7.28 192.57 7.196C192.682 7.112 192.836 7.07 193.032 7.07C193.284 7.07 193.457 7.168 193.55 7.364C193.643 7.56 193.639 7.77933 193.536 8.022L191.17 13.468C190.993 13.888 190.703 14.098 190.302 14.098ZM195.63 5.642C195.35 5.642 195.13 5.572 194.972 5.432C194.822 5.292 194.748 5.096 194.748 4.844C194.748 4.312 195.042 4.046 195.63 4.046C196.218 4.046 196.512 4.312 196.512 4.844C196.512 5.376 196.218 5.642 195.63 5.642ZM195.63 14.084C195.163 14.084 194.93 13.8273 194.93 13.314V7.854C194.93 7.35 195.163 7.098 195.63 7.098C196.106 7.098 196.344 7.35 196.344 7.854V13.314C196.344 13.8273 196.106 14.084 195.63 14.084ZM200.518 14.126C200.042 14.126 199.617 14.0327 199.244 13.846C198.871 13.6593 198.572 13.4073 198.348 13.09C198.133 12.7727 198.026 12.4133 198.026 12.012C198.026 11.508 198.152 11.1113 198.404 10.822C198.665 10.5327 199.09 10.3227 199.678 10.192C200.275 10.0613 201.078 9.996 202.086 9.996H202.562V9.632C202.562 9.1 202.45 8.71733 202.226 8.484C202.002 8.25067 201.633 8.134 201.12 8.134C200.821 8.134 200.509 8.17133 200.182 8.246C199.865 8.32067 199.533 8.44667 199.188 8.624C198.992 8.71733 198.829 8.73133 198.698 8.666C198.577 8.60067 198.493 8.498 198.446 8.358C198.399 8.218 198.404 8.07333 198.46 7.924C198.516 7.77467 198.633 7.66267 198.81 7.588C199.221 7.40133 199.627 7.266 200.028 7.182C200.429 7.08867 200.807 7.042 201.162 7.042C202.095 7.042 202.786 7.266 203.234 7.714C203.682 8.15267 203.906 8.84333 203.906 9.786V13.384C203.906 13.86 203.687 14.098 203.248 14.098C202.8 14.098 202.576 13.86 202.576 13.384V12.866C202.408 13.258 202.147 13.566 201.792 13.79C201.437 14.014 201.013 14.126 200.518 14.126ZM200.798 13.118C201.302 13.118 201.722 12.9407 202.058 12.586C202.394 12.2313 202.562 11.7833 202.562 11.242V10.864H202.1C201.419 10.864 200.882 10.8967 200.49 10.962C200.107 11.0273 199.832 11.1393 199.664 11.298C199.505 11.4473 199.426 11.6573 199.426 11.928C199.426 12.2827 199.547 12.572 199.79 12.796C200.033 13.0107 200.369 13.118 200.798 13.118ZM206.539 8.89C206.259 8.89 206.035 8.806 205.867 8.638C205.709 8.47 205.629 8.26 205.629 8.008C205.629 7.73733 205.709 7.52267 205.867 7.364C206.035 7.196 206.259 7.112 206.539 7.112C206.81 7.112 207.025 7.196 207.183 7.364C207.342 7.52267 207.421 7.73733 207.421 8.008C207.421 8.26 207.342 8.47 207.183 8.638C207.025 8.806 206.81 8.89 206.539 8.89ZM206.539 14.056C206.259 14.056 206.035 13.972 205.867 13.804C205.709 13.636 205.629 13.4213 205.629 13.16C205.629 12.8987 205.709 12.6887 205.867 12.53C206.035 12.362 206.259 12.278 206.539 12.278C206.81 12.278 207.025 12.362 207.183 12.53C207.342 12.6887 207.421 12.8987 207.421 13.16C207.421 13.4213 207.342 13.636 207.183 13.804C207.025 13.972 206.81 14.056 206.539 14.056Z" fill="#B2B2B2"/>
<path d="M4.91898 2.23263C3.83902 2.53027 2.76639 2.85391 1.70203 3.20327C1.60484 3.23475 1.51845 3.2929 1.45269 3.37109C1.38693 3.44927 1.34446 3.54436 1.3301 3.6455C0.701907 8.35924 2.15333 11.7984 3.88484 14.064C4.61794 15.0328 5.49207 15.8863 6.47813 16.5961C6.87047 16.8728 7.21745 17.0723 7.49073 17.2005C7.6268 17.2651 7.73792 17.3082 7.82297 17.3343C7.86016 17.3473 7.89851 17.3568 7.93749 17.3626C7.97602 17.3564 8.01395 17.3469 8.05089 17.3343C8.13706 17.3082 8.24819 17.2651 8.38426 17.2005C8.6564 17.0723 9.00452 16.8716 9.39686 16.5961C10.3829 15.8863 11.257 15.0328 11.9901 14.064C13.7217 11.7996 15.1731 8.35924 14.5449 3.6455C14.5307 3.54431 14.4882 3.44916 14.4225 3.37096C14.3567 3.29275 14.2702 3.23464 14.173 3.20327C13.4348 2.96175 12.1886 2.56827 10.956 2.23376C9.69735 1.89245 8.53961 1.63959 7.93749 1.63959C7.33651 1.63959 6.17764 1.89245 4.91898 2.23376V2.23263ZM4.61736 1.06469C5.84767 0.730178 7.15508 0.429688 7.93749 0.429688C8.7199 0.429688 10.0273 0.730178 11.2576 1.06469C12.5163 1.40486 13.7852 1.80741 14.5313 2.0512C14.8432 2.15422 15.1198 2.34315 15.3292 2.59628C15.5386 2.84942 15.6724 3.15649 15.7151 3.48222C16.3909 8.55881 14.8227 12.3212 12.92 14.8101C12.1131 15.8749 11.151 16.8125 10.0659 17.5917C9.69065 17.8613 9.29308 18.0984 8.87752 18.3004C8.56002 18.4501 8.21871 18.5725 7.93749 18.5725C7.65628 18.5725 7.3161 18.4501 6.99747 18.3004C6.5819 18.0984 6.18434 17.8613 5.80911 17.5917C4.72398 16.8125 3.7619 15.8749 2.95502 14.8101C1.05229 12.3212 -0.515931 8.55881 0.15989 3.48222C0.202624 3.15649 0.336378 2.84942 0.545784 2.59628C0.755191 2.34315 1.03176 2.15422 1.34371 2.0512C2.42683 1.69607 3.51836 1.36713 4.61736 1.06469Z" fill="#B2B2B2"/>
<path d="M11.1733 6.26422C11.2261 6.31689 11.268 6.37945 11.2966 6.44833C11.3252 6.51721 11.3399 6.59106 11.3399 6.66563C11.3399 6.74021 11.3252 6.81405 11.2966 6.88293C11.268 6.95181 11.2261 7.01438 11.1733 7.06704L7.77154 10.4688C7.71888 10.5216 7.65631 10.5635 7.58743 10.5921C7.51855 10.6207 7.44471 10.6354 7.37013 10.6354C7.29556 10.6354 7.22171 10.6207 7.15283 10.5921C7.08395 10.5635 7.02139 10.5216 6.96872 10.4688L5.26783 8.76793C5.21512 8.71522 5.1733 8.65264 5.14477 8.58376C5.11625 8.51489 5.10156 8.44107 5.10156 8.36652C5.10156 8.29197 5.11625 8.21816 5.14477 8.14928C5.1733 8.08041 5.21512 8.01783 5.26783 7.96511C5.32055 7.9124 5.38313 7.87058 5.452 7.84206C5.52087 7.81353 5.59469 7.79884 5.66924 7.79884C5.74379 7.79884 5.81761 7.81353 5.88648 7.84206C5.95536 7.87058 6.01794 7.9124 6.07065 7.96511L7.37013 9.26573L10.3705 6.26422C10.4232 6.21142 10.4857 6.16953 10.5546 6.14095C10.6235 6.11237 10.6973 6.09766 10.7719 6.09766C10.8465 6.09766 10.9203 6.11237 10.9892 6.14095C11.0581 6.16953 11.1207 6.21142 11.1733 6.26422Z" fill="#B2B2B2"/>
</svg>
